<svg width="200" height="21" viewBox="0 0 200 21" fill="none" xmlns="http://www.w3.org/2000/svg">
<path d="M12.1841 12.6895H3.97071V20H0.271782V0.485977H12.1841C13.8928 0.485977 15.3393 1.0879 16.5238 2.29175C17.7276 3.47618 18.3295 4.90333 18.3295 6.57319C18.3295 8.20421 17.7276 9.63136 16.5238 10.8546C15.3393 12.0779 13.8928 12.6895 12.1841 12.6895ZM14.6306 6.57319C14.6306 5.93243 14.3879 5.37905 13.9025 4.91304C13.4365 4.42762 12.8637 4.1849 12.1841 4.1849H3.97071V8.9906H12.1841C12.8637 8.9906 13.4365 8.75759 13.9025 8.29159C14.3879 7.80616 14.6306 7.23336 14.6306 6.57319ZM44.4082 20H40.3015L38.3209 15.7477H28.3892L26.3504 20H22.2437L31.4765 0.485977H35.1754L44.4082 20ZM36.5443 11.9905L33.3405 5.20429L30.1076 11.9905H36.5443ZM66.1191 15.9224C63.9638 18.8738 61.1775 20.3495 57.7601 20.3495C54.9835 20.3495 52.6146 19.3689 50.6535 17.4078C48.6924 15.4273 47.7118 13.0487 47.7118 10.2721C47.7118 7.43724 48.6924 5.04896 50.6535 3.10726C52.634 1.14615 55.0514 0.165597 57.9057 0.165597C61.3619 0.243265 64.0803 1.68012 66.0608 4.47616L63.0318 6.57319C61.5949 4.80625 59.8377 3.92277 57.7601 3.92277C55.9932 3.92277 54.4883 4.53441 53.2457 5.75768C52.0224 6.98094 51.4108 8.46634 51.4108 10.2139C51.4108 12.0002 52.0224 13.5147 53.2457 14.7574C54.4883 15.9807 55.9932 16.5923 57.7601 16.5923C59.7212 16.5923 61.4784 15.6991 63.0318 13.9128L66.1191 15.9224ZM89.6558 20H86.0443V11.5245H75.0931V20H71.3942V0.485977H75.0931V7.7382H86.0443V0.485977H89.6558V20ZM111.454 20H95.6391V0.485977H111.163V4.1849H99.338V7.7382H106.182V11.5245H99.338V16.3011H111.454V20ZM132.864 4.1849H120.747V7.7382H128V11.5245H120.747V20H117.049V0.485977H132.864V4.1849ZM154.273 20H138.458V0.485977H153.982V4.1849H142.157V7.7382H149.001V11.5245H142.157V16.3011H154.273V20ZM177.634 14.1749C177.614 16.0778 176.857 17.5826 175.362 18.6894C173.886 19.7961 171.789 20.3495 169.071 20.3495C165.324 20.3495 162.091 19.3689 159.372 17.4078L161.498 14.3788C163.654 15.8545 166.139 16.602 168.955 16.6215C170.683 16.5632 171.954 16.3205 172.77 15.8933C173.605 15.4661 174.032 14.8836 174.051 14.1458C174.11 13.4274 173.702 12.8449 172.828 12.3983C171.954 11.9323 170.586 11.6022 168.722 11.408C165.44 11.0585 163.246 10.3983 162.139 9.42748C161.032 8.43721 160.489 7.1654 160.508 5.61205C160.547 3.94219 161.343 2.63155 162.896 1.68012C164.45 0.709272 166.353 0.204431 168.605 0.165597C171.246 0.165597 173.848 0.932566 176.411 2.4665L174.372 5.4373C172.644 4.42762 170.634 3.92277 168.343 3.92277C167.353 3.90336 166.411 4.01986 165.518 4.27228C164.644 4.5247 164.227 4.97129 164.265 5.61205C164.227 6.19456 164.605 6.66056 165.401 7.01007C166.197 7.34016 167.557 7.60228 169.479 7.79645C172.508 8.06829 174.624 8.83526 175.828 10.0974C177.032 11.3595 177.634 12.7186 177.634 14.1749ZM199.009 4.1849H192.455V20H188.756V4.1849H182.232V0.485977H199.009V4.1849Z" fill="black"/>
</svg>
